<svg width="512" height="512" xmlns="http://www.w3.org/2000/svg">
 <g>
  <title>Layer 1</title>
  <path stroke="#000" id="svg_8" d="m223.594287,192.136308c-0.820431,-1.234144 -1.838329,-2.443752 -3.136171,-3.371723c-5.553166,-4.046418 -13.389704,-2.812201 -17.460913,2.772584c-4.064288,5.598064 -2.779634,13.422523 2.786301,17.480325c5.057286,3.664563 11.806018,2.785917 16.112271,-1.525289l-118.161141,162.890352l-36.734619,133.338732l115.337117,-76.318666l262.66284,-362.092381l-78.63421,-57.031524l-25.348252,34.947317c-1.450099,-5.813527 -4.687981,-11.271737 -9.935648,-15.11404c-12.175268,-8.828022 -29.196822,-6.157495 -38.019437,6.042214c-50.556961,69.743414 -22.530367,88.316117 -69.468155,157.9821l0.000018,0l-0.000001,-0.000001zm-57.846672,218.014895l-59.328592,39.260163l18.892087,-68.647175l40.436523,29.387012l-0.000018,0zm69.888152,-221.564158c36.397171,-53.775246 32.930293,-68.356339 64.079961,-116.087367c5.152768,3.53613 11.068318,4.783516 16.875653,4.477344l-80.955614,111.610042l0,-0.000018l0,-0.000001z" stroke-width="0" fill="#007acc"/>
 </g>
</svg>