<svg width="512" height="512" xmlns="http://www.w3.org/2000/svg">
 <g>
  <title>Layer 1</title>
  <path fill="#007acc" stroke="#000" stroke-width="0" d="m364.118313,178.289444c-2.08145,-7.763246 -4.894221,-7.725743 4.144149,-28.859024l31.127995,-65.987593c0.393788,-0.956342 3.750361,-7.725743 3.600346,-17.739205c0.281277,-9.919704 -5.869315,-24.171074 -20.983269,-30.79046c-21.977114,-10.40725 -21.939611,-10.444754 -43.954229,-20.758246c-14.701414,-7.425714 -29.646602,-3.206558 -37.10982,3.356573c-7.875758,6.24435 -10.951054,13.126262 -11.419849,14.063852l-31.18425,65.931338c-10.576017,20.326954 -12.282432,18.189249 -19.651891,21.508318c-8.794596,2.418983 -23.327244,10.463506 -33.47197,34.034522c-20.776999,43.991729 -20.776999,43.991729 -20.776999,43.991729l-5.175498,10.988556l21.939611,10.369747l-67.487743,142.944992c-7.125686,15.526493 -3.112799,26.927589 -3.112799,38.103663c0.187518,11.75738 -1.443889,28.29647 -16.42658,60.193286l-5.175498,10.988556l65.950095,31.146744l5.175498,-10.969805c15.151458,-31.859313 26.833832,-43.616693 36.040967,-50.948648c8.62583,-7.144437 19.989423,-11.251082 27.471393,-26.62756l67.487743,-142.851233l21.977114,10.388499l5.231753,-11.044812c0,0 0,0 20.720743,-43.972977c11.757381,-22.839696 8.775844,-39.060005 5.062987,-47.460812l0.000001,0zm-142.476207,224.59034c-2.925281,6.619386 -7.744495,8.232041 -20.458218,17.907972c-10.819791,8.400808 -23.70228,21.977113 -37.672374,48.754687l-22.333399,-10.538513c11.776133,-27.752668 14.063853,-46.39196 13.688817,-60.062024c-0.581306,-15.957784 -2.400231,-20.70199 0.843831,-27.171362l67.487743,-142.907488l65.950095,31.165496l-67.506495,142.851233l0,-0.000001z" id="svg_1"/>
 </g>
</svg>