<svg width="100" height="100" xmlns="http://www.w3.org/2000/svg">
 <g>
  <title>Layer 1</title>
  <path id="svg_3" stroke="#007acc" stroke-width="5" fill-opacity="null" d="m55.962743,28.104479c-4.848784,-4.70977 -10.078464,-8.482591 -14.368414,-8.99694c-0.233542,-0.033363 -0.475425,-0.052825 -0.73121,-0.058386l-28.233599,0c-0.450403,0 -0.895246,0.175157 -1.212196,0.500448c-0.31417,0.31695 -0.500448,0.761793 -0.500448,1.214976l0,71.591845c0,0.450403 0.175157,0.881344 0.500448,1.209416c0.325291,0.322511 0.753452,0.497668 1.212196,0.497668l51.056801,0c0.450403,0 0.881344,-0.172376 1.206635,-0.497668c0.325291,-0.325291 0.506008,-0.756232 0.506008,-1.209416l0,-47.639855c-0.10009,-5.529949 -4.431744,-11.560345 -9.436222,-16.612088l0.000001,0zm-2.41049,2.424392c2.238114,2.185289 4.251026,4.659726 5.75237,7.045194c-1.301164,-0.514349 -2.666275,-0.895246 -3.947977,-1.198295c-2.82197,-0.633901 -5.582774,-0.889685 -7.298198,-0.992555c0.008341,-0.369775 0.011121,-0.786815 0.011121,-1.239999c0,-2.416051 -0.152915,-5.8608 -0.989775,-8.896851c-0.008341,-0.027803 -0.013901,-0.055605 -0.025022,-0.083408c2.124123,1.401254 4.437304,3.261252 6.497481,5.365913l0,0.000001zm8.415865,60.106567l-47.631514,0l0,-68.166558l26.529296,0l0,0.005561c1.156591,-0.069507 2.154706,1.073183 2.919279,3.686633c0.695066,2.488338 0.870223,5.732908 0.867443,7.982143c0.005561,1.648698 -0.075067,2.755243 -0.075067,2.755243l-0.136233,1.812733l1.823854,0.019462c0.008341,0 4.214883,0.050045 8.340797,0.986994c3.964659,0.856322 7.064655,2.563405 7.353803,4.49569c0.011121,0.172376 0.013901,0.344753 0.011121,0.506008l0,45.91609l-0.00278,0l0.000001,0.000001z"/>
  <path id="svg_4" stroke="#007acc" stroke-width="5" stroke-dasharray="2,2" fill-opacity="null" d="m77.263895,15.635513c-4.848784,-4.70977 -10.078464,-8.482591 -14.368414,-8.99694c-0.233542,-0.033363 -0.475425,-0.052825 -0.73121,-0.058386l-28.233599,0c-0.450403,0 -0.895246,0.175157 -1.212196,0.500448c-0.31417,0.316951 -0.500448,0.761793 -0.500448,1.214976l0,71.591846c0,0.450403 0.175157,0.881344 0.500448,1.209415c0.325291,0.322511 0.753452,0.497668 1.212196,0.497668l51.056801,0c0.450403,0 0.881344,-0.172376 1.206636,-0.497668c0.325291,-0.325291 0.506008,-0.756232 0.506008,-1.209415l0,-47.639855c-0.10009,-5.529949 -4.431744,-11.560346 -9.436222,-16.612089zm-2.410491,2.424392c2.238114,2.185289 4.251027,4.659726 5.75237,7.045194c-1.301164,-0.514349 -2.666275,-0.895246 -3.947977,-1.198295c-2.82197,-0.6339 -5.582774,-0.889685 -7.298198,-0.992555c0.008341,-0.369775 0.011121,-0.786815 0.011121,-1.239998c0,-2.416051 -0.152914,-5.860801 -0.989775,-8.896851c-0.00834,-0.027803 -0.013901,-0.055605 -0.025022,-0.083408c2.124123,1.401254 4.437304,3.261252 6.497481,5.365913zm8.415865,60.106567l-47.631514,0l0,-68.166558l26.529296,0l0,0.005561c1.156591,-0.069507 2.154706,1.073183 2.91928,3.686632c0.695066,2.488338 0.870223,5.732909 0.867442,7.982144c0.005561,1.648697 -0.075067,2.755243 -0.075067,2.755243l-0.136233,1.812733l1.823855,0.019462c0.00834,0 4.214883,0.050045 8.340797,0.986995c3.964659,0.856322 7.064655,2.563405 7.353803,4.49569c0.011121,0.172376 0.013901,0.344752 0.011121,0.506008l0,45.91609l-0.00278,0z"/>
 </g>
</svg>