<svg width="512" height="512" xmlns="http://www.w3.org/2000/svg">
 <g>
  <title>Layer 1</title>
  <path fill="#007acc" stroke="#000" stroke-width="0" stroke-opacity="null" d="m19.406245,409.20045c28.63642,-0.185933 57.272823,-0.371897 85.909243,-0.557814c0.188545,-29.40987 0.377058,-58.819739 0.565587,-88.229577c28.499611,0 56.999238,0 85.498864,0c0,-29.590305 0,-59.18061 0,-88.770899c29.229445,0 58.458859,0 87.688304,0c0,-28.86858 0,-57.73716 0,-86.60574c28.868559,0 57.737118,0 86.605709,0c0,-28.868564 0,-57.73716 0,-86.60574c42.942008,0 85.884016,0 128.826024,0c0,14.43429 0,28.86858 0,43.30287c-28.507769,0 -57.015425,0 -85.523194,0c0,29.229434 0,58.458869 0,87.688319c-28.868543,0 -57.737102,0 -86.605709,0c0,29.22945 0,58.458885 0,87.688319c-28.868591,0 -57.737118,0 -86.605709,0c0,29.229434 0,58.458885 0,87.688271c-29.229445,0 -58.458875,0 -87.688288,0c0,29.590321 0,59.18061 0,88.770883c-43.302879,0 -86.605725,0 -129.908588,0c1.930455,-14.344056 -3.290979,-30.518574 1.237755,-44.368877l0,-0.000016l0.000002,0.000001z" id="svg_1"/>
 </g>
</svg>