<svg width="512" height="512" xmlns="http://www.w3.org/2000/svg">
 <g>
  <title>Layer 1</title>
  <path fill="none" stroke-width="23" fill-opacity="null" d="m383.997079,443.023545l-17.744428,-62.105496c5.200167,-4.56155 10.081024,-9.442407 14.68819,-14.665382l62.059883,17.744428c6.545823,-9.533639 12.179337,-19.660279 17.219849,-30.174651l-46.185689,-44.703185c2.212352,-6.568632 4.128202,-13.251301 5.496668,-20.139242l62.242345,-15.600499c0.456154,-5.747553 0.889502,-11.517913 0.889502,-17.402312s-0.456156,-11.631951 -0.889502,-17.379504l-62.242345,-15.6005c-1.391273,-6.88794 -3.307124,-13.57061 -5.496668,-20.139241l46.208497,-44.703186c-5.06332,-10.491564 -10.696833,-20.641012 -17.242657,-30.17465l-62.059883,17.72162c-4.584358,-5.200167 -9.488023,-10.081026 -14.68819,-14.665382l17.744428,-62.08269c-9.533639,-6.523015 -19.683087,-12.179337 -30.197459,-17.219849l-44.703186,46.208497c-6.545823,-2.212352 -13.251301,-4.105395 -20.139242,-5.496668l-15.577692,-62.265151c-5.770359,-0.433348 -11.517912,-0.889502 -17.402312,-0.889502s-11.631951,0.456154 -17.379504,0.889502l-15.6005,62.265151c-6.88794,1.391273 -13.57061,3.284316 -20.139242,5.496668l-44.703186,-46.208497c-10.491564,5.108936 -20.618204,10.742449 -30.151843,17.288272l17.744428,62.08269c-5.200167,4.561549 -10.103832,9.465215 -14.665382,14.642573l-62.08269,-17.744428c-6.545825,9.533639 -12.179338,19.683087 -17.21985,30.197459l46.208497,44.703186c-2.189544,6.568631 -4.105395,13.251301 -5.496666,20.139241l-62.265153,15.6005c-0.433348,5.747551 -0.889503,11.517912 -0.889503,17.379504s0.456156,11.631951 0.889503,17.402312l62.265153,15.600499c1.391272,6.88794 3.307123,13.57061 5.496666,20.139242l-46.208497,44.703185c5.040512,10.491564 10.674026,20.641012 17.21985,30.174651l62.08269,-17.744428c4.56155,5.222974 9.465215,10.081024 14.665382,14.665381l-17.744428,62.105498c9.533639,6.523015 19.683087,12.15653 30.174651,17.21985l44.703186,-46.208497c6.568632,2.212352 13.251303,4.128202 20.139242,5.496666l15.6005,62.242345c5.747553,0.456154 11.517913,0.889502 17.402312,0.889502s11.631951,-0.456156 17.402312,-0.889502l15.577692,-62.242345c6.887941,-1.391272 13.593418,-3.307123 20.139242,-5.496666l44.703186,46.208497c10.468756,-5.108936 20.618204,-10.742449 30.151843,-17.265466zm-127.997083,-109.499996c-42.810143,0 -77.523536,-34.713393 -77.523536,-77.523535s34.713393,-77.500727 77.523536,-77.500727s77.500728,34.690584 77.500728,77.500727s-34.690585,77.523535 -77.500728,77.523535z" id="svg_1" stroke="#007acc"/>
 </g>
</svg>