<svg width="100" height="100" xmlns="http://www.w3.org/2000/svg">
 <g>
  <title>Layer 1</title>
  <path id="svg_1" fill="#007acc" d="m50,23.59837c-25.82496,0 -46.20155,26.39992 -46.20155,26.39992s20.3766,26.40335 46.20155,26.40335c19.75031,0 46.20155,-26.40335 46.20155,-26.40335s-26.45124,-26.39992 -46.20155,-26.39992zm0,42.85111c-9.06577,0 -16.45117,-7.38199 -16.45117,-16.45118s7.3854,-16.45118 16.45117,-16.45118s16.45117,7.38541 16.45117,16.45118s-7.3854,16.45118 -16.45117,16.45118zm0,-26.05427c-5.3012,0 -9.60308,4.29846 -9.60308,9.60308c0,5.30463 4.29846,9.60308 9.60308,9.60308c5.30462,0 9.60308,-4.29846 9.60308,-9.60308c0,-5.3012 -4.29846,-9.60308 -9.60308,-9.60308z"/>
 </g>
</svg>